<svg width="48" height="48" viewBox="0 0 48 48" fill="none" xmlns="http://www.w3.org/2000/svg">
<path d="M7.2 2.39999C6.56348 2.39999 5.95303 2.65285 5.50295 3.10294C5.05286 3.55302 4.8 4.16347 4.8 4.79999C4.8 5.43651 5.05286 6.04696 5.50295 6.49705C5.95303 6.94714 6.56348 7.19999 7.2 7.19999H10.128L10.86 10.1328C10.8673 10.1666 10.8753 10.2002 10.884 10.2336L14.1432 23.2656L12 25.4064C8.976 28.4304 11.1168 33.6 15.3936 33.6H36C36.6365 33.6 37.247 33.3471 37.6971 32.897C38.1471 32.447 38.4 31.8365 38.4 31.2C38.4 30.5635 38.1471 29.953 37.6971 29.5029C37.247 29.0528 36.6365 28.8 36 28.8H15.3936L17.7936 26.4H33.6C34.0456 26.3998 34.4823 26.2755 34.8613 26.0411C35.2402 25.8067 35.5464 25.4714 35.7456 25.0728L42.9456 10.6728C43.1284 10.307 43.2147 9.90053 43.1963 9.49201C43.1779 9.08348 43.0554 8.68644 42.8405 8.33854C42.6255 7.99064 42.3253 7.70344 41.9682 7.50418C41.611 7.30492 41.2089 7.20021 40.8 7.19999H15.072L14.328 4.21679C14.198 3.6978 13.8983 3.23713 13.4765 2.90797C13.0547 2.5788 12.535 2.40001 12 2.39999H7.2ZM38.4 39.6C38.4 40.5548 38.0207 41.4704 37.3456 42.1456C36.6705 42.8207 35.7548 43.2 34.8 43.2C33.8452 43.2 32.9296 42.8207 32.2544 42.1456C31.5793 41.4704 31.2 40.5548 31.2 39.6C31.2 38.6452 31.5793 37.7295 32.2544 37.0544C32.9296 36.3793 33.8452 36 34.8 36C35.7548 36 36.6705 36.3793 37.3456 37.0544C38.0207 37.7295 38.4 38.6452 38.4 39.6ZM15.6 43.2C16.5548 43.2 17.4705 42.8207 18.1456 42.1456C18.8207 41.4704 19.2 40.5548 19.2 39.6C19.2 38.6452 18.8207 37.7295 18.1456 37.0544C17.4705 36.3793 16.5548 36 15.6 36C14.6452 36 13.7295 36.3793 13.0544 37.0544C12.3793 37.7295 12 38.6452 12 39.6C12 40.5548 12.3793 41.4704 13.0544 42.1456C13.7295 42.8207 14.6452 43.2 15.6 43.2Z" fill="#7E3AF2"/>
</svg>
