<svg width="48" height="48" viewBox="0 0 48 48" fill="none" xmlns="http://www.w3.org/2000/svg">
<path fill-rule="evenodd" clip-rule="evenodd" d="M24 43.2C29.0921 43.2 33.9757 41.1771 37.5764 37.5764C41.1771 33.9757 43.2 29.0921 43.2 24C43.2 18.9078 41.1771 14.0242 37.5764 10.4235C33.9757 6.82284 29.0921 4.79999 24 4.79999C18.9078 4.79999 14.0242 6.82284 10.4235 10.4235C6.82284 14.0242 4.79999 18.9078 4.79999 24C4.79999 29.0921 6.82284 33.9757 10.4235 37.5764C14.0242 41.1771 18.9078 43.2 24 43.2ZM10.3968 19.2648C11.2879 16.7129 12.8779 14.4626 14.9856 12.7704C15.6288 13.752 16.7376 14.4 18 14.4C18.9548 14.4 19.8704 14.7793 20.5456 15.4544C21.2207 16.1295 21.6 17.0452 21.6 18V19.2C21.6 20.473 22.1057 21.6939 23.0059 22.5941C23.9061 23.4943 25.1269 24 26.4 24C27.673 24 28.8939 23.4943 29.7941 22.5941C30.6943 21.6939 31.2 20.473 31.2 19.2C31.1996 18.1258 31.5595 17.0825 32.2222 16.2371C32.8849 15.3917 33.812 14.793 34.8552 14.5368C37.1455 17.1568 38.4054 20.52 38.4 24C38.4 24.816 38.3328 25.62 38.2008 26.4H36C34.7269 26.4 33.5061 26.9057 32.6059 27.8059C31.7057 28.7061 31.2 29.927 31.2 31.2V36.4728C29.0119 37.7388 26.5279 38.4037 24 38.4V33.6C24 32.327 23.4943 31.1061 22.5941 30.2059C21.6939 29.3057 20.473 28.8 19.2 28.8C17.9269 28.8 16.706 28.2943 15.8059 27.3941C14.9057 26.4939 14.4 25.273 14.4 24C14.4004 22.8648 13.9985 21.7662 13.2656 20.8993C12.5327 20.0323 11.5162 19.4532 10.3968 19.2648Z" fill="#7E3AF2"/>
</svg>
