<svg width="48" height="48" viewBox="0 0 48 48" fill="none" xmlns="http://www.w3.org/2000/svg">
<path fill-rule="evenodd" clip-rule="evenodd" d="M4.8 12C4.8 10.727 5.30572 9.50607 6.20589 8.6059C7.10607 7.70572 8.32696 7.20001 9.6 7.20001H38.4C39.673 7.20001 40.8939 7.70572 41.7941 8.6059C42.6943 9.50607 43.2 10.727 43.2 12V16.8C43.2 18.0731 42.6943 19.2939 41.7941 20.1941C40.8939 21.0943 39.673 21.6 38.4 21.6H9.6C8.32696 21.6 7.10607 21.0943 6.20589 20.1941C5.30572 19.2939 4.8 18.0731 4.8 16.8V12ZM38.4 14.4C38.4 15.0365 38.1471 15.647 37.6971 16.0971C37.247 16.5472 36.6365 16.8 36 16.8C35.3635 16.8 34.753 16.5472 34.3029 16.0971C33.8529 15.647 33.6 15.0365 33.6 14.4C33.6 13.7635 33.8529 13.153 34.3029 12.703C34.753 12.2529 35.3635 12 36 12C36.6365 12 37.247 12.2529 37.6971 12.703C38.1471 13.153 38.4 13.7635 38.4 14.4ZM4.8 31.2C4.8 29.927 5.30572 28.7061 6.20589 27.8059C7.10607 26.9057 8.32696 26.4 9.6 26.4H38.4C39.673 26.4 40.8939 26.9057 41.7941 27.8059C42.6943 28.7061 43.2 29.927 43.2 31.2V36C43.2 37.2731 42.6943 38.4939 41.7941 39.3941C40.8939 40.2943 39.673 40.8 38.4 40.8H9.6C8.32696 40.8 7.10607 40.2943 6.20589 39.3941C5.30572 38.4939 4.8 37.2731 4.8 36V31.2ZM38.4 33.6C38.4 34.2365 38.1471 34.847 37.6971 35.2971C37.247 35.7472 36.6365 36 36 36C35.3635 36 34.753 35.7472 34.3029 35.2971C33.8529 34.847 33.6 34.2365 33.6 33.6C33.6 32.9635 33.8529 32.353 34.3029 31.903C34.753 31.4529 35.3635 31.2 36 31.2C36.6365 31.2 37.247 31.4529 37.6971 31.903C38.1471 32.353 38.4 32.9635 38.4 33.6Z" fill="#7E3AF2"/>
</svg>
